<?xml version="1.0" standalone="no"?>
<!DOCTYPE svg PUBLIC "-//W3C//DTD SVG 20010904//EN"
 "http://www.w3.org/TR/2001/REC-SVG-20010904/DTD/svg10.dtd">
<svg version="1.0" xmlns="http://www.w3.org/2000/svg"
 width="100.000000pt" height="100.000000pt" viewBox="0 0 100.000000 100.000000"
 preserveAspectRatio="xMidYMid meet">

<g transform="translate(0.000000,100.000000) scale(0.100000,-0.100000)"
fill="#000000" stroke="none">
<path d="M390 913 c-59 -21 -142 -104 -158 -159 -31 -104 -9 -198 63 -270 58
-59 120 -84 205 -84 195 0 322 169 268 354 -17 57 -99 138 -162 159 -61 21
-156 21 -216 0z m165 -117 c38 -16 72 -63 81 -112 9 -47 -26 -118 -67 -140
-135 -69 -265 85 -177 209 37 52 101 69 163 43z"/>
<path d="M423 335 c-101 -28 -169 -93 -199 -191 -19 -64 -8 -76 65 -72 56 3
56 3 78 50 59 123 199 125 262 3 l26 -50 56 -3 c74 -4 84 8 64 74 -28 95 -100
163 -201 189 -70 18 -83 18 -151 0z"/>
</g>
</svg>
