<svg width="500" height="500" viewBox="330 330 300 330" fill="none" xmlns="http://www.w3.org/2000/svg"><path d="M0 0h1000v1000H0z"/><g clip-path="url(#a)"><path clip-rule="evenodd" d="M392.375 639.25c22.989 0 41.625-15.53 41.625-34.688 0-19.157-18.636-34.687-41.625-34.687s-41.625 15.53-41.625 34.687c0 19.158 18.636 34.688 41.625 34.688Zm180.375-41.625c22.989 0 41.625-15.53 41.625-34.687 0-19.158-18.636-34.688-41.625-34.688s-41.625 15.53-41.625 34.688c0 19.157 18.636 34.687 41.625 34.687Z" stroke="#000" stroke-width="27.75"/><path d="M420.128 597.623c0 7.663 6.212 13.875 13.875 13.875s13.875-6.212 13.875-13.875zm23.608-217.113 2.684 13.613.118-.023zm157.061-32.377 2.801 13.589.021-.004zm14.313 9.713 13.835-1.057a14 14 0 0 0-.224-1.635zm.191 2.498 13.875.013q0-.536-.041-1.07zm-14.066 200.263c-.007 7.663 6.199 13.881 13.862 13.888 7.663.008 13.881-6.198 13.888-13.861zm-153.357 37.016V392.721h-27.75v204.902zm0-204.902c0 .258-.088.511-.261.729-.179.224-.568.549-1.197.673l-5.368-27.226c-12.505 2.466-20.924 13.663-20.924 25.824zm-1.34 1.379 157.06-32.378-5.602-27.178-157.061 32.377zm157.081-32.382c-.453.094-1.035-.015-1.481-.319-.425-.29-.6-.662-.639-.86l27.222-5.385c-2.764-13.975-16.172-23.634-30.746-20.606zm-2.344-2.815.191 2.498 27.669-2.114-.19-2.498zm.151 1.428-.191 200.276 27.75.027.191-200.277z" fill="#000"/><path fill="#000" d="m434.064 453.978 176.908-36.73 5.641 27.171-176.908 36.73z"/></g><defs><clipPath id="a"><path fill="#000" d="M323 334h333v333H323z"/></clipPath></defs></svg>