<svg id="Layer_1" data-name="Layer 1" xmlns="http://www.w3.org/2000/svg" viewBox="0 0 3000 900"><defs><style>.cls-1{fill:#000;}.cls-2{fill:#fff;}</style></defs><rect class="cls-1" width="3000" height="900"/><path class="cls-2" d="M89.52,107a268.16,268.16,0,0,0,27.75.49q11.9-.48,19.33-.49H151a78.61,78.61,0,0,1,13.38-1H181.2q9.9,0,22.79,1,4,27.36,9.17,53.23t9.17,46.39q4.95,24.43,9.91,45.91t11.89,51.76q6,25.41,14.37,62t19.82,83.5q5.46-30.25,10.16-55.67t8.18-43.95q4-21.47,6.44-39.06t5.45-43q2.47-21.47,5.7-51.76t6.69-70.32h25.77a172.61,172.61,0,0,0,19.82-1,130.72,130.72,0,0,0,16.85-1,153.11,153.11,0,0,0,21.31-2q11.4-1.94,30.48-3.41t47.32-4.4a163.51,163.51,0,0,0-16.6,28.81q-6.19,14.17-9.66,24.91a113.94,113.94,0,0,0-5,24.41q-1,9.78-1.73,44.93T448.05,341q-.74,48.35-1,103t.25,103.53q.48,48.86,1.73,84.48t3.72,45.42q3.47,11.72,9.42,27.34,5.44,13.69,14.12,31.25a346.6,346.6,0,0,0,23,39.07q-22.8,2-37.91,2.93t-25,2q-11.42,1-18.34,1c-4.95,0-11.73.34-20.32,1q-11.4,1-30.23,2.44T319,788.75q6.93-15.62,12.88-31.26t9.92-28.32q4.94-14.65,8.42-28.32,3.46-18.55,5.45-67.39,2-42,3-120.62t0-211.45q-9.42,30.28-16.6,60.07t-12.63,54.2q-6,28.33-10.91,54.69-4.95,27.36-10.4,60.56-5,28.33-11.65,67.39T281.3,684.24l-18.83,2q-4-39.06-7.93-70.81t-7.93-54.21q-4.46-26.37-8.92-46.88-5-20.5-10.9-45.9-5.46-21.47-13.14-50.79t-17.59-65.43q-5,99.61-5.94,161.63t0,96.21q1,41,3,59.57a304.64,304.64,0,0,0,9.41,37.12q5.46,17.58,15.12,41.5t25,53.23H219.85c-7.93,0-15.2.34-21.81,1q-11.88,1-23.29,1-11.9,1-27.75,2.93-13.87,1.93-33.2,3.9t-44.6,6.84A171.72,171.72,0,0,0,87,790.21a203.24,203.24,0,0,0,10.9-23.93,148,148,0,0,0,7.44-25.39q1.49-7.82,2.72-34.18t2.48-64.46q1.23-38.1,2-85t1.49-95.23q.74-48.35,1.24-94.74t.74-84q.24-37.59.25-63V188.1q-1.48-14.65-4.46-29.3a149.15,149.15,0,0,0-7.93-26.37A108.15,108.15,0,0,0,89.52,107Z"/><path class="cls-2" d="M759.17,70.9q26.76,2,54.27,19t50.79,54.7q23.28,37.61,39.64,96.69t20.32,144a605.41,605.41,0,0,1-8.67,137.22q-12.15,67.9-33.45,124.53T833,743.33q-27.76,39.55-55.5,52.25-16.86,7.83-36.92,1.47T700,772.63q-20.57-18.06-40.14-46.39t-35.43-65a506,506,0,0,1-26.51-79.6,476.49,476.49,0,0,1-13.13-89.85,785.44,785.44,0,0,1-.25-86.44,921.05,921.05,0,0,1,9.41-94.73,686.91,686.91,0,0,1,20.32-91.81q13.13-44.43,33.45-78.13T695.49,88Q723,68.94,759.17,70.9Zm-88.7,395.55q-6.94,104.52,10.16,168t51.78,77.16q16.85,6.84,32.46-14.16t28.5-61q12.87-40,22.3-93.76t13.87-112.32q4.46-58.6.74-106t-12.63-81.06q-8.92-33.69-21.56-52.25t-26-20.51q-23.3-2.94-40.63,23.93T700.2,264.28q-11.9,43-19.08,96.69T670.47,466.45Z"/><path class="cls-2" d="M1008.59,94.34q15.87,4.89,28.75,8.3t22.3,5.37q10.89,2.92,19.32,4.88,10.41,2.94,31.22-7.32A487.83,487.83,0,0,1,1156,86a175,175,0,0,1,51.29-10.75q26.26-1.46,48.07,19t35.68,41a192.84,192.84,0,0,1,22,43.46,241.58,241.58,0,0,1,11.65,48.34,470.65,470.65,0,0,1,4,55.67,377.29,377.29,0,0,1-10.9,86.93,343.89,343.89,0,0,1-11.64,36.62,234.37,234.37,0,0,1-17.6,36.63,204.3,204.3,0,0,1-24.53,33.2,152.72,152.72,0,0,1-33,27.35A114.15,114.15,0,0,1,1261.58,529a210.88,210.88,0,0,1,19.57,27.35,148.53,148.53,0,0,1,13.38,30.28,294,294,0,0,1,7.43,35.16q2,14.64,2.73,27.83t2.23,26.86a194.64,194.64,0,0,0,6.44,31.25q4,13.7,9.42,28.32,5,12.71,11.64,27.35a164.51,164.51,0,0,0,16.6,28.32q-13.87,1-25.52,1h-20.07a170.93,170.93,0,0,1-18.83-1,214.15,214.15,0,0,0-22.3-1h-29q-17.6,0-42.37,1a203.87,203.87,0,0,0,17.84-33.2,284.75,284.75,0,0,0,10.9-30.28,216.14,216.14,0,0,0,6.45-30.27,336.11,336.11,0,0,0,.49-54.7,364.07,364.07,0,0,0-7.93-54.2A276.22,276.22,0,0,0,1199.88,529q-14.39,4.9-24,7.33t-16.6,4.39q-7.92,2-12.88,2.93c-3,.66-6.28,1.32-9.91,2q-4.47,1-9.67,2.44a73.79,73.79,0,0,0-9.66,3.42q-1,42,0,72.76t2.48,51.27q2,24.43,4.46,42a282.87,282.87,0,0,0,6.94,34.18q3.45,13.7,8.92,28.81t12.39,24.91h-24.53a203.16,203.16,0,0,1-21.07-1q-10.9,0-20.81-1t-22.3-1h-24.53q-14.11,0-30.48,1,12.9-26.37,20.32-44.93t11.4-31.25a115.62,115.62,0,0,0,5.45-23.44q1-15.62,1.74-56.16t1.23-93.27q.49-52.74.5-110.37t-.5-107.92q-.49-50.3-1-86.43t-1-45.91a187.85,187.85,0,0,0-6.44-35.16,328.1,328.1,0,0,0-11.4-35.16A200.57,200.57,0,0,0,1008.59,94.34Zm187.32,343.78a86.77,86.77,0,0,0,8.43-11.72q3.47-5.85,6-19t4.21-37.6q1.73-24.4,4.21-66.42,2-42-2.73-69.34t-12.38-43.46q-7.69-16.11-16.85-22.46t-16.11-6.35q-13.87,0-27.25,16.6t-20.32,44.93q-2.49,12.7-4.46,42-1.48,25.41-2,70.32t1.48,118.18q18.83,5.87,33.2,4.39t24.29-6.34A58.49,58.49,0,0,0,1195.91,438.12Z"/><path class="cls-2" d="M1394.3,106.06q33.2,2.93,51.53,2.93h18.34q7.92,0,19.82-1,9.91-1,25.27-1.46t36.68-2.45a163.62,163.62,0,0,0-15.86,26.37q-6,12.71-9.42,22.47a127,127,0,0,0-5.45,21.48q-3.46,25.41-2.72,68.86T1516.7,337q3.46,50.31,8.42,102.06t10.16,93.76q5.21,42,9.42,68.85t6.19,26.86q2,0,7.68-28.32t13.14-71.79q7.43-43.44,15.36-94.73t14.62-97.67q6.69-46.38,11.15-80.08t4.46-41.51a113.55,113.55,0,0,0-3.47-22.47,146.38,146.38,0,0,0-8.68-24.9,320.53,320.53,0,0,0-17.09-32.72q15.35-1,26.51-1.95c7.43-.64,13.79-1,19.08-1h94.65a288.93,288.93,0,0,0-21.06,32.23,257.39,257.39,0,0,0-14.12,29.3q-6.45,15.63-10.91,29.3-4.95,20.5-16.35,88.88-5,29.29-11.4,71.29t-15.36,100.6q-8.92,58.6-19.82,135.27T1594.5,792.65l-68.88,17.58q-12.39-76.17-21.56-139.17T1488,563.14q-7.93-52.74-13.38-94.74-7.44-50.77-12.64-103T1453,270.63q-3.72-42.49-6.69-70.81t-6.44-33.21q-3-4.87-8.92-12.7-5.45-6.81-14.13-18.06T1394.3,106.06Z"/><path class="cls-2" d="M1756.21,140.24q34.68,2,57.73,2.44t37.42.49H2025.3q1,19.54,1.73,37.6t.74,31.74q0,16.62-.49,30.28t-1.49,29.3q-1,13.7-2,29.3t-3.47,32.23q-6.94-52.74-18.58-80.09t-23.54-40q-13.87-14.66-29.24-15.63-20.32,2-31.71,6.84a42.06,42.06,0,0,0-17.85,13.67,63.12,63.12,0,0,0-9.66,20q-3.23,11.23-6.69,24.9-3,11.71-5.45,36.14-2.49,20.51-4.71,55.67t-4.7,90.83a159,159,0,0,0,21.55-14.65q8.17-6.82,13.13-11.72a48.49,48.49,0,0,0,7.93-10.75q2-5.85,6-21.48,3-13.66,8.18-37.12t12.63-64.46q1,44.94,1,74.72t.5,48.34q0,21.49.5,34.19v37.11q0,20.5.24,55.18t1.24,87.41q-5.94-36.12-10.65-57.13t-8.18-31.74q-4-12.69-6.94-17.58a54.9,54.9,0,0,0-9.41-3.91,80.42,80.42,0,0,0-13.63-1q-8.17,0-20.57,4.89-1.49,53.72-.24,86.43t3.71,50.3q2.47,20.5,5.95,29.3,4.46,8.79,17.84,14.16t30.48,3.91q17.08-1.47,34.93-11.23t31.72-32.23q10.41-18.54,22.3-46.88,9.9-24.4,22.05-61.53t24-89.86q-2,44-2.73,72.76t-1.73,46.4q-1,20.51-1.49,31.25,0,11.72-1.49,33.21-1,18.56-3.22,50.29t-5.7,80.58q-23.3,1-44.1,1.46t-36.67,1.47q-18.84,1-34.69,2a249.63,249.63,0,0,0-36.18,2.93q-17.35,2-40.88,5.86t-51.79,10.75q2.48-66.42,3.72-125.51t1.73-104q.49-52.74,0-97.67,2.48-112.29-2-181.66t-10.41-88.87q-3-6.82-8.42-16.61A198.86,198.86,0,0,0,1776,164.66Q1768.11,153.92,1756.21,140.24Z"/><path class="cls-2" d="M2153.31,94.34q15.87,4.89,28.74,8.3t22.3,5.37q10.89,2.92,19.33,4.88,10.41,2.94,31.22-7.32A485.58,485.58,0,0,1,2300.74,86,175,175,0,0,1,2352,75.29q26.25-1.46,48.06,19t35.69,41a193.25,193.25,0,0,1,22,43.46,240.89,240.89,0,0,1,11.64,48.34,472.68,472.68,0,0,1,4,55.67,378.39,378.39,0,0,1-10.9,86.93,346.34,346.34,0,0,1-11.65,36.62A233.43,233.43,0,0,1,2433.3,443a205.49,205.49,0,0,1-24.53,33.2,153,153,0,0,1-33,27.35A114.15,114.15,0,0,1,2406.29,529a209.93,209.93,0,0,1,19.57,27.35,148.53,148.53,0,0,1,13.38,30.28,294.28,294.28,0,0,1,7.44,35.16q2,14.64,2.72,27.83t2.23,26.86a193.67,193.67,0,0,0,6.45,31.25q4,13.7,9.41,28.32,5,12.71,11.65,27.35a164.51,164.51,0,0,0,16.6,28.32q-13.89,1-25.52,1h-20.07a170.67,170.67,0,0,1-18.83-1,214.15,214.15,0,0,0-22.3-1h-29q-17.61,0-42.37,1a203.87,203.87,0,0,0,17.84-33.2,287,287,0,0,0,10.9-30.28,216.07,216.07,0,0,0,6.44-30.27,335,335,0,0,0,.49-54.7,364,364,0,0,0-7.92-54.2A276.8,276.8,0,0,0,2344.59,529q-14.37,4.9-24,7.33t-16.6,4.39q-7.93,2-12.89,2.93c-3,.66-6.28,1.32-9.91,2q-4.45,1-9.66,2.44a74,74,0,0,0-9.67,3.42q-1,42,0,72.76t2.48,51.27q2,24.43,4.46,42a284.81,284.81,0,0,0,6.94,34.18q3.47,13.7,8.92,28.81T2297,805.35h-24.53a202.82,202.82,0,0,1-21.06-1q-10.91,0-20.81-1t-22.3-1h-24.53q-14.13,0-30.48,1,12.89-26.37,20.32-44.93T2185,727.22a115.73,115.73,0,0,0,5.46-23.44q1-15.62,1.73-56.16t1.24-93.27q.48-52.74.49-110.37t-.49-107.92q-.49-50.3-1-86.43t-1-45.91a187.88,187.88,0,0,0-6.45-35.16,327.85,327.85,0,0,0-11.39-35.16A201.68,201.68,0,0,0,2153.31,94.34Zm187.32,343.78a85.79,85.79,0,0,0,8.42-11.72q3.47-5.85,5.95-19t4.21-37.6q1.74-24.4,4.21-66.42,2-42-2.72-69.34t-12.39-43.46q-7.7-16.11-16.85-22.46t-16.1-6.35q-13.89,0-27.26,16.6t-20.32,44.93q-2.47,12.7-4.46,42-1.49,25.41-2,70.32t1.49,118.18q18.83,5.87,33.2,4.39t24.28-6.34A58.53,58.53,0,0,0,2340.63,438.12Z"/><path class="cls-2" d="M2574.69,114.85q22.3,7.83,36.67,10.74t23.29,4.88q10.41,2,16.36,1h14.86c5.28,0,12-.15,20.07-.49s18.25-.49,30.48-.49q10.41,47.86,19.08,87.9t14.62,68.37q6.93,34.2,12.88,61.53,6.93,34.2,14.87,75.2t14.62,77.16q6.69,36.15,11.15,59.58t4.46,21.48q0-1,.49-20t1-47.86q.49-28.78,1.24-63.48t1-67.39q.26-32.71.25-60.06t-1-41a337.31,337.31,0,0,0-6-38.09q-4-18.54-10.9-44.44t-19.33-59.09q20.33,1,33.21,1h20.81a75.12,75.12,0,0,0,13.88-1,79.8,79.8,0,0,0,15.85-2,196.59,196.59,0,0,1,21.07-3.42q12.63-1.47,31.46-4.4a261.18,261.18,0,0,0-17.34,37.12q-6.45,17.58-10.41,31.25a178.43,178.43,0,0,0-6,29.3q-2,17.58-3.22,57.14t-2.47,88.38q-1.25,48.85-2.23,101.58t-2,96.69q0,33.21-1,71.29-1,32.24-2,72.76t-2.48,81.56l-44.1,2q-19.34-67.4-32.46-115.74T2764,604.16q-9.42-36.12-15.86-60.56-5.45-23.43-14.37-53.71-7.43-25.39-18.58-62.51t-26.51-85q-1.49,67.39-1.24,114.76t1.24,78.62q1.48,36.15,3.47,60.55,2.47,23.45,6.93,52.74,4,25.41,9.67,59.58t14.12,77.16q-29.25-2.94-43.61-2.94h-14.86q-6.94,0-18.84,2.94-9.91,2-27,5.85t-42.37,10.75a531,531,0,0,0,19.08-52.25q7.17-23.92,11.15-40.53a314,314,0,0,0,6.93-34.19q1.48-15.62,2-54.2t.24-87.9q-.26-49.31-1-104t-1.73-101.57q-1-46.87-2.23-80.09t-1.74-41a157.48,157.48,0,0,0-5.94-27.34q-4-12.69-10.41-28.81A273.53,273.53,0,0,0,2574.69,114.85Z"/></svg>